<svg width="20" height="18" viewBox="0 0 20 18" fill="none" xmlns="http://www.w3.org/2000/svg">
<path d="M2.91114 17.805H1.49401L2.4961 16.8029C3.03641 16.2626 3.37382 15.5599 3.46453 14.7975C2.05459 13.8722 1.02358 12.6549 0.471684 11.2589C-0.079823 9.86388 -0.149128 8.32825 0.271282 6.81793C0.775712 5.0057 1.95883 3.35392 3.60263 2.16681C5.38892 0.876852 7.61264 0.194992 10.0334 0.194992C13.083 0.194992 15.6534 1.07115 17.4667 2.72868C19.1003 4.22198 20 6.23621 20 8.40041C20 9.45184 19.7859 10.4749 19.3637 11.4412C18.9268 12.4411 18.287 13.3314 17.4621 14.0874C15.6463 15.7514 13.0775 16.631 10.0334 16.631C8.90333 16.631 7.72413 16.4802 6.67132 16.2033C5.67479 17.2256 4.32441 17.805 2.91114 17.805ZM10.0334 1.36899C5.17936 1.36899 2.20087 4.26381 1.40228 7.13276C0.647628 9.84392 1.76007 12.4057 4.3781 13.9856L4.67062 14.1621L4.66162 14.5037C4.64378 15.1796 4.48263 15.8307 4.19417 16.4193C4.89658 16.1817 5.53395 15.7508 6.03305 15.1611L6.28124 14.8679L6.64929 14.978C7.68214 15.2869 8.88396 15.457 10.0334 15.457C16.0745 15.457 18.826 11.7991 18.826 8.40041C18.826 6.5699 18.062 4.86337 16.6746 3.59522C15.0814 2.13883 12.7849 1.36899 10.0334 1.36899Z" fill="white"/>
</svg>
